<svg width="32" height="32" viewBox="0 0 32 32" fill="none" xmlns="http://www.w3.org/2000/svg">
<path d="M5 10V22H27V10H5Z" stroke="black" stroke-width="2" stroke-linecap="round" stroke-linejoin="round"/>
<path d="M22 13V19M22 13H20V13.5455M22 13H24V13.5455M22 19H21.2M22 19H22.8" stroke="black" stroke-linecap="round" stroke-linejoin="round"/>
<path d="M8 17V15C8 13.8954 8.89543 13 10 13C11.1046 13 12 13.8954 12 15V17C12 18.1046 11.1046 19 10 19C8.89543 19 8 18.1046 8 17Z" stroke="black" stroke-linecap="round" stroke-linejoin="round"/>
<path d="M14 13V17C14 18.1046 14.8954 19 16 19V19C17.1046 19 18 18.1046 18 17V13" stroke="black" stroke-linecap="round" stroke-linejoin="round"/>
</svg>
