<svg width="128" height="64" viewBox="0 0 128 64" fill="none" xmlns="http://www.w3.org/2000/svg">
<path fill-rule="evenodd" clip-rule="evenodd" d="M5 42C5 41.4477 5.44772 41 6 41H16C19.9586 41 23 44.04 23 48C23 51.96 19.9586 55 16 55H6C5.44772 55 5 54.5523 5 54V42ZM7 43V53H16C18.8689 53 21 50.8727 21 48C21 45.1273 18.8689 43 16 43H7ZM25 46C26.0893 46 27 46.9107 27 48C27 49.0893 26.0893 50 25 50C23.9107 50 23 49.0893 23 48C23 46.9107 23.9107 46 25 46Z" fill="black"/>
<path fill-rule="evenodd" clip-rule="evenodd" d="M7 10C7 9.44772 7.44772 9 8 9H18C21.9586 9 25 12.04 25 16C25 19.96 21.9586 23 18 23H8C7.44772 23 7 22.5523 7 22V10ZM9 11V21H18C20.8689 21 23 18.8727 23 16C23 13.1273 20.8689 11 18 11H9Z" fill="black"/>
<path fill-rule="evenodd" clip-rule="evenodd" d="M42.5073 9.1298C42.8208 8.95229 43.2056 8.95715 43.5145 9.14251L53.5145 15.1425C53.8157 15.3232 54 15.6487 54 16C54 16.3513 53.8157 16.6768 53.5145 16.8575L43.5145 22.8575C43.2056 23.0429 42.8208 23.0477 42.5073 22.8702C42.1938 22.6927 42 22.3603 42 22V10C42 9.63973 42.1938 9.30731 42.5073 9.1298ZM44 11.7662V20.2338L51.0563 16L44 11.7662Z" fill="black"/>
<path fill-rule="evenodd" clip-rule="evenodd" d="M40.5073 41.1298C40.8208 40.9523 41.2056 40.9571 41.5145 41.1425L51.5145 47.1425C51.8157 47.3232 52 47.6487 52 48C52 48.3513 51.8157 48.6768 51.5145 48.8575L41.5145 54.8575C41.2056 55.0429 40.8208 55.0477 40.5073 54.8702C40.1938 54.6927 40 54.3603 40 54V42C40 41.6397 40.1938 41.3073 40.5073 41.1298ZM52 48C52 49.1046 52.8954 50 54 50C55.1046 50 56 49.1046 56 48C56 46.8954 55.1046 46 54 46C52.8954 46 52 46.8954 52 48ZM42 43.7662V52.2338L49 48L42 43.7662Z" fill="black"/>
<path fill-rule="evenodd" clip-rule="evenodd" d="M73 9C72.5753 9 72.1969 9.26824 72.0564 9.66899C71.9158 10.0697 72.0437 10.5156 72.3753 10.7809C74.7802 12.7048 75.75 14.4482 75.75 16C75.75 17.5518 74.7802 19.2952 72.3753 21.2191C72.0437 21.4844 71.9158 21.9303 72.0564 22.331C72.1969 22.7318 72.5753 23 73 23C79.1757 23 83.3544 21.4535 86.0145 19.8575C87.3407 19.0618 88.2795 18.2597 88.8946 17.6446C89.3177 17.2215 90.0008 16.6592 90 16C89.9992 15.342 89.3172 14.778 88.8946 14.3554C88.2795 13.7403 87.3407 12.9382 86.0145 12.1425C83.3544 10.5465 79.1757 9 73 9ZM84.9855 13.8575C83.0182 12.6771 80.0036 11.4616 75.6319 11.1045C76.9896 12.6437 77.75 14.2742 77.75 16C77.75 17.7258 76.9896 19.3563 75.6319 20.8955C80.0036 20.5384 83.0182 19.3229 84.9855 18.1425C86.3478 17.3251 87.2215 16.5165 87.703 16C87.2215 15.4835 86.3478 14.6749 84.9855 13.8575Z" fill="black"/>
<path d="M87.0001 48C87.0001 46.8954 87.8955 46 89.0001 46C90.1046 46 91.0001 46.8954 91.0001 48C91.0001 49.1046 90.1046 50 89.0001 50C87.8955 50 87.0001 49.1046 87.0001 48Z" fill="black"/>
<path fill-rule="evenodd" clip-rule="evenodd" d="M70.0001 41C69.5754 41 69.197 41.2682 69.0564 41.669C68.9159 42.0697 69.0437 42.5156 69.3754 42.7809C71.7803 44.7048 72.7501 46.4482 72.7501 48C72.7501 49.5518 71.7803 51.2952 69.3754 53.2191C69.0437 53.4844 68.9159 53.9303 69.0564 54.331C69.197 54.7318 69.5754 55 70.0001 55C76.1758 55 80.3545 53.4535 83.0145 51.8575C84.3407 51.0618 85.2796 50.2597 85.8947 49.6446C86.3178 49.2215 87.0008 48.6592 87.0001 48C86.9993 47.342 86.3173 46.778 85.8947 46.3554C85.2796 45.7403 84.3407 44.9382 83.0145 44.1425C80.3545 42.5465 76.1758 41 70.0001 41ZM81.9856 45.8575C80.0182 44.6771 77.0037 43.4616 72.632 43.1045C73.9897 44.6437 74.7501 46.2742 74.7501 48C74.7501 49.7258 73.9897 51.3563 72.632 52.8955C77.0037 52.5384 80.0182 51.3229 81.9856 50.1425C83.3479 49.3251 84.2216 48.5165 84.7031 48C84.2216 47.4835 83.3479 46.6749 81.9856 45.8575Z" fill="black"/>
<path fill-rule="evenodd" clip-rule="evenodd" d="M105 9C104.575 9 104.197 9.26824 104.056 9.66899C103.916 10.0697 104.044 10.5156 104.375 10.7809C106.78 12.7048 107.75 14.4482 107.75 16C107.75 17.5518 106.78 19.2952 104.375 21.2191C104.044 21.4844 103.916 21.9303 104.056 22.331C104.197 22.7318 104.575 23 105 23C111.176 23 115.354 21.4535 118.014 19.8575C119.341 19.0618 120.28 18.2597 120.895 17.6446C121.318 17.2215 122.001 16.6592 122 16C121.999 15.342 121.317 14.778 120.895 14.3554C120.28 13.7403 119.341 12.9382 118.014 12.1425C115.354 10.5465 111.176 9 105 9ZM116.985 13.8575C115.018 12.6771 112.004 11.4616 107.632 11.1045C108.99 12.6437 109.75 14.2742 109.75 16C109.75 17.7258 108.99 19.3563 107.632 20.8955C112.004 20.5384 115.018 19.3229 116.985 18.1425C118.348 17.3251 119.221 16.5165 119.703 16C119.221 15.4835 118.348 14.6749 116.985 13.8575Z" fill="black"/>
<path d="M102.625 10.2191C102.193 9.87412 101.564 9.94404 101.219 10.3753C100.874 10.8066 100.944 11.4359 101.375 11.7809C102.605 12.7645 103.468 13.5803 104.02 14.2972C104.566 15.0073 104.75 15.5472 104.75 16C104.75 16.4528 104.566 16.9927 104.02 17.7028C103.468 18.4198 102.605 19.2355 101.375 20.2192C100.944 20.5642 100.874 21.1935 101.219 21.6247C101.564 22.056 102.193 22.1259 102.625 21.7809C103.895 20.7646 104.907 19.8303 105.605 18.9222C106.309 18.0073 106.75 17.0472 106.75 16C106.75 14.9528 106.309 13.9927 105.605 13.0778C104.907 12.1697 103.895 11.2355 102.625 10.2191Z" fill="black"/>
<path d="M99.2191 42.3753C99.5641 41.944 100.193 41.8741 100.625 42.2191C101.895 43.2355 102.907 44.1697 103.605 45.0778C104.309 45.9927 104.75 46.9528 104.75 48C104.75 49.0472 104.309 50.0073 103.605 50.9222C102.907 51.8303 101.895 52.7645 100.625 53.7809C100.193 54.1259 99.5641 54.056 99.2191 53.6247C98.8741 53.1934 98.944 52.5641 99.3753 52.2191C100.605 51.2355 101.468 50.4197 102.02 49.7028C102.566 48.9927 102.75 48.4528 102.75 48C102.75 47.5472 102.566 47.0073 102.02 46.2972C101.468 45.5803 100.605 44.7645 99.3753 43.7809C98.944 43.4359 98.8741 42.8066 99.2191 42.3753Z" fill="black"/>
<path d="M120 48C120 46.8954 120.895 46 122 46C123.105 46 124 46.8954 124 48C124 49.1046 123.105 50 122 50C120.895 50 120 49.1046 120 48Z" fill="black"/>
<path fill-rule="evenodd" clip-rule="evenodd" d="M103 41C102.575 41 102.197 41.2682 102.056 41.669C101.916 42.0697 102.044 42.5156 102.375 42.7809C104.78 44.7048 105.75 46.4482 105.75 48C105.75 49.5518 104.78 51.2952 102.375 53.2191C102.044 53.4844 101.916 53.9303 102.056 54.331C102.197 54.7318 102.575 55 103 55C109.176 55 113.354 53.4535 116.014 51.8575C117.341 51.0618 118.28 50.2597 118.895 49.6446C119.318 49.2215 120.001 48.6592 120 48C119.999 47.342 119.317 46.778 118.895 46.3554C118.28 45.7403 117.341 44.9382 116.014 44.1425C113.354 42.5465 109.176 41 103 41ZM114.985 45.8575C113.018 44.6771 110.004 43.4616 105.632 43.1045C106.99 44.6437 107.75 46.2742 107.75 48C107.75 49.7258 106.99 51.3563 105.632 52.8955C110.004 52.5384 113.018 51.3229 114.985 50.1425C116.348 49.3251 117.221 48.5165 117.703 48C117.221 47.4835 116.348 46.6749 114.985 45.8575Z" fill="black"/>
</svg>
